# xmcd
#
# Track frame offsets: 
#        150
#        14716
#        31362
#        47946
#        73987
#        112393
#        130675
#        148478
#
# Disc length: 2248 seconds
#
# Revision: 0
# Processed by: cddbd v1.5.2PL0 Copyright (c) Steve Scherf et al.
# Submitted via: ExactAudioCopyFreeDBPlugin 1.0
#
DISCID=8608c608
DTITLE=Z-Star Delta - Dark Days Down Under
DYEAR=2016
DGENRE=Blues
TTITLE0=I Put A Spell On You
TTITLE1=When Your Man Don't Come Home
TTITLE2=Paint These Walls White
TTITLE3=Hey Little Mama
TTITLE4=Soul Skankin Deep Delta
TTITLE5=The Bridge Hotel
TTITLE6=Wrong To Love Me
TTITLE7=All Along The Watchtower
EXTD=
EXTT0=
EXTT1=
EXTT2=
EXTT3=
EXTT4=
EXTT5=
EXTT6=
EXTT7=
PLAYORDER=
